<svg width="158" height="70" viewBox="0 0 158 70" fill="none" xmlns="http://www.w3.org/2000/svg">
<path d="M6.5 66.2L23.2 52.2C23.3333 52.1333 23.4667 51.4333 23.6 50.1C23.8 48.7667 23.9667 47.2333 24.1 45.5C24.2333 43.7 24.3667 41.8667 24.5 40C24.6333 38.0667 24.7333 36.5 24.8 35.3C24.8 34.5667 24.8 33.5667 24.8 32.3C24.8667 30.9667 24.9 29.5 24.9 27.9C24.9 26.3 24.9 24.6333 24.9 22.9C24.9 21.1667 24.9 19.5333 24.9 18C24.9 16.4667 24.8667 15.1 24.8 13.9C24.8 12.7 24.8 11.8333 24.8 11.3C24.8 11.1 24.7 10.7333 24.5 10.2C24.3667 9.66666 24.2333 9.1 24.1 8.5C24.0333 7.9 23.9 7.36666 23.7 6.9C23.5 6.36666 23.3333 5.96666 23.2 5.7C21.3333 5.63333 19.4333 5.76666 17.5 6.1C15.5667 6.43333 13.6333 6.86666 11.7 7.4C9.83333 7.86667 7.96667 8.26667 6.1 8.6C4.23333 8.93333 2.46667 8.93333 0.8 8.6C0.4 7.73333 0.833333 6.83333 2.1 5.9C3.36667 4.9 5.2 4.03333 7.6 3.3C10.0667 2.56666 12.9 1.96667 16.1 1.5C19.3667 1.03333 22.7 0.83333 26.1 0.899996C29.5667 0.966662 32.9667 1.33333 36.3 2C39.7 2.66667 42.7 3.73333 45.3 5.2C47.9667 6.66667 50.1 8.6 51.7 11C53.3667 13.4 54.2 16.3667 54.2 19.9C54.2 21.1667 53.9667 22.5 53.5 23.9C53.1 25.2333 52.5667 26.6 51.9 28C51.2333 29.4 50.4667 30.7667 49.6 32.1C48.7333 33.3667 47.9333 34.4333 47.2 35.3C46.8 35.7 46.1667 36.3667 45.3 37.3C44.4333 38.1667 43.4333 39.1667 42.3 40.3C41.2333 41.4333 40.0667 42.6 38.8 43.8C37.6 45 36.4333 46.1667 35.3 47.3C34.2333 48.3667 33.2333 49.3333 32.3 50.2C31.4333 51.0667 30.7667 51.7333 30.3 52.2C30.1667 53.5333 29.9667 54.7333 29.7 55.8C29.4333 56.8667 29 57.6667 28.4 58.2C27.8667 58.8 27.1667 59.0667 26.3 59C25.5 59 24.4667 58.6 23.2 57.8C22.0667 58.6 20.8333 59.7333 19.5 61.2C18.2333 62.6667 16.8667 64.1 15.4 65.5C14 66.9 12.5333 68 11 68.8C9.46667 69.6 7.96667 69.6667 6.5 69V66.2ZM30.3 5.7V46.5C33.7 45.1 36.7 43.0333 39.3 40.3C41.9667 37.5667 44.0667 34.6 45.6 31.4C47.1333 28.1333 48.0667 24.8333 48.4 21.5C48.7333 18.1667 48.3333 15.2333 47.2 12.7C46.0667 10.1667 44.1333 8.23333 41.4 6.9C38.6667 5.5 34.9667 5.1 30.3 5.7ZM63.4336 66.2L80.1336 52.2C80.2669 52.1333 80.4003 51.4333 80.5336 50.1C80.7336 48.7667 80.9003 47.2333 81.0336 45.5C81.1669 43.7 81.3003 41.8667 81.4336 40C81.5669 38.0667 81.6669 36.5 81.7336 35.3C81.7336 34.5667 81.7336 33.5667 81.7336 32.3C81.8003 30.9667 81.8336 29.5 81.8336 27.9C81.8336 26.3 81.8336 24.6333 81.8336 22.9C81.8336 21.1667 81.8336 19.5333 81.8336 18C81.8336 16.4667 81.8003 15.1 81.7336 13.9C81.7336 12.7 81.7336 11.8333 81.7336 11.3C81.7336 11.1 81.6336 10.7333 81.4336 10.2C81.3003 9.66666 81.1669 9.1 81.0336 8.5C80.9669 7.9 80.8336 7.36666 80.6336 6.9C80.4336 6.36666 80.2669 5.96666 80.1336 5.7C78.2669 5.63333 76.3669 5.76666 74.4336 6.1C72.5003 6.43333 70.5669 6.86666 68.6336 7.4C66.7669 7.86667 64.9003 8.26667 63.0336 8.6C61.1669 8.93333 59.4003 8.93333 57.7336 8.6C57.3336 7.73333 57.7669 6.83333 59.0336 5.9C60.3003 4.9 62.1336 4.03333 64.5336 3.3C67.0003 2.56666 69.8336 1.96667 73.0336 1.5C76.3003 1.03333 79.6336 0.83333 83.0336 0.899996C86.5003 0.966662 89.9003 1.33333 93.2336 2C96.6336 2.66667 99.6336 3.73333 102.234 5.2C104.9 6.66667 107.034 8.6 108.634 11C110.3 13.4 111.134 16.3667 111.134 19.9C111.134 21.1667 110.9 22.5 110.434 23.9C110.034 25.2333 109.5 26.6 108.834 28C108.167 29.4 107.4 30.7667 106.534 32.1C105.667 33.3667 104.867 34.4333 104.134 35.3C103.734 35.7 103.1 36.3667 102.234 37.3C101.367 38.1667 100.367 39.1667 99.2336 40.3C98.1669 41.4333 97.0003 42.6 95.7336 43.8C94.5336 45 93.3669 46.1667 92.2336 47.3C91.1669 48.3667 90.1669 49.3333 89.2336 50.2C88.3669 51.0667 87.7003 51.7333 87.2336 52.2C87.1003 53.5333 86.9003 54.7333 86.6336 55.8C86.3669 56.8667 85.9336 57.6667 85.3336 58.2C84.8003 58.8 84.1003 59.0667 83.2336 59C82.4336 59 81.4003 58.6 80.1336 57.8C79.0003 58.6 77.7669 59.7333 76.4336 61.2C75.1669 62.6667 73.8003 64.1 72.3336 65.5C70.9336 66.9 69.4669 68 67.9336 68.8C66.4003 69.6 64.9003 69.6667 63.4336 69V66.2ZM87.2336 5.7V46.5C90.6336 45.1 93.6336 43.0333 96.2336 40.3C98.9003 37.5667 101 34.6 102.534 31.4C104.067 28.1333 105 24.8333 105.334 21.5C105.667 18.1667 105.267 15.2333 104.134 12.7C103 10.1667 101.067 8.23333 98.3336 6.9C95.6003 5.5 91.9003 5.1 87.2336 5.7ZM120.567 57.3C120.634 56.5667 120.667 55.3333 120.667 53.6V42.6C120.667 40.8667 120.634 39.6333 120.567 38.9C120.501 38.6333 120.401 37.9667 120.267 36.9C120.134 35.8333 119.967 34.5667 119.767 33.1C119.567 31.5667 119.367 30 119.167 28.4C118.967 26.8 118.734 25.3 118.467 23.9C118.267 22.4333 118.101 21.1667 117.967 20.1C117.834 18.9667 117.734 18.2 117.667 17.8C117.601 17.0667 117.567 16.3 117.567 15.5C117.634 14.7 117.801 14 118.067 13.4C118.334 12.8 118.734 12.4 119.267 12.2C119.867 11.9333 120.734 11.9667 121.867 12.3C121.934 13.4333 122.034 14.7667 122.167 16.3C122.367 17.8333 122.567 19.4333 122.767 21.1C122.967 22.7667 123.234 24.4333 123.567 26.1C123.901 27.7 124.301 29.2 124.767 30.6C125.434 28.5333 126.101 26.7333 126.767 25.2C127.501 23.6667 128.301 22.2667 129.167 21C130.034 19.7333 131.001 18.5 132.067 17.3C133.134 16.1 134.434 14.9 135.967 13.7C137.834 12.1 139.401 11.4667 140.667 11.8C141.934 12.0667 142.967 13 143.767 14.6C144.634 16.1333 145.334 18.1333 145.867 20.6C146.467 23 146.967 25.5667 147.367 28.3C147.767 31.0333 148.201 33.7 148.667 36.3C149.134 38.9 149.701 41.1667 150.367 43.1C151.101 45.0333 152.001 46.4333 153.067 47.3C154.134 48.1667 155.467 48.2 157.067 47.4C157.534 48.8667 157.601 49.9333 157.267 50.6C156.934 51.2667 156.334 51.6333 155.467 51.7C154.601 51.7667 153.601 51.5667 152.467 51.1C151.401 50.5667 150.301 49.8667 149.167 49C148.101 48.1333 147.134 47.0667 146.267 45.8C145.401 44.5333 144.767 43.2 144.367 41.8C144.234 40.8667 144.067 39.3 143.867 37.1C143.667 34.8333 143.401 32.4333 143.067 29.9C142.801 27.3667 142.301 24.8667 141.567 22.4C140.901 19.9333 139.967 17.9667 138.767 16.5L133.067 22C132.934 22.2667 132.534 23.2667 131.867 25C131.267 26.6667 130.601 28.6333 129.867 30.9C129.134 33.1667 128.401 35.4667 127.667 37.8C126.934 40.0667 126.434 41.9 126.167 43.3C126.034 43.7667 125.867 44.6667 125.667 46C125.534 47.2667 125.367 48.6667 125.167 50.2C125.034 51.7333 124.934 53.1667 124.867 54.5C124.801 55.8333 124.767 56.7667 124.767 57.3C124.301 58.3 123.601 58.8 122.667 58.8C121.734 58.8 121.034 58.3 120.567 57.3Z" fill="white"/>
</svg>
